<svg xmlns="http://www.w3.org/2000/svg" viewBox="0 0 90.67 90.66"><defs><style>.cls-1{fill:#fff;}.cls-2{fill:none;stroke:#fff;stroke-miterlimit:10;stroke-width:0.29px;}</style></defs><g id="Layer_2" data-name="Layer 2"><g id="Layer_1-2" data-name="Layer 1"><path class="cls-1" d="M50.35,4.87c.06.52.39.78,1,.85s.86-.14.9-.5-.18-.62-1-.92c-1.33-.47-1.61-1-1.53-1.69.1-.87.82-1.39,2-1.25s1.78.93,1.77,1.67l-1.1-.13c0-.31-.14-.67-.79-.74-.44-.05-.73.1-.77.46s.16.51,1,.79c1.42.51,1.67,1.09,1.59,1.8-.1.92-.87,1.47-2.2,1.31s-1.87-.85-1.88-1.78Z" transform="translate(-1.2 -1.2)"/><path class="cls-1" d="M58.62,6.34a2,2,0,0,1-2.5,1.07,2.29,2.29,0,0,1-1.69-3.06,2.37,2.37,0,0,1,3-2,1.93,1.93,0,0,1,1.68,2.09L58,4.2a1,1,0,0,0-.85-1c-.87-.21-1.4.5-1.62,1.39s-.12,1.78.83,2a1,1,0,0,0,1.19-.51Z" transform="translate(-1.2 -1.2)"/><path class="cls-1" d="M60.81,6.63l-.72,1.89-1-.38,1.79-4.72L63,4.2c1,.39,1.37,1.17,1.09,1.9A1.21,1.21,0,0,1,62.94,7c.2.17.46.55.14,1.4L63,8.59a3.69,3.69,0,0,0-.28.93l-1-.37a3.75,3.75,0,0,1,.31-1.1l0-.07c.2-.51.16-.81-.6-1.1Zm.31-.81.85.32c.56.21.86.08,1-.31s0-.7-.53-.89l-.88-.33Z" transform="translate(-1.2 -1.2)"/><path class="cls-1" d="M69,9.91A2.42,2.42,0,0,1,65.55,11a2.37,2.37,0,0,1-.89-3.44,2.41,2.41,0,0,1,3.42-1.11A2.35,2.35,0,0,1,69,9.91ZM65.66,8.12c-.47.86-.44,1.73.35,2.15s1.55-.09,2-.88.47-1.69-.36-2.14S66.13,7.25,65.66,8.12Z" transform="translate(-1.2 -1.2)"/><path class="cls-1" d="M71.54,8.62l.89.63L70,12.64l2,1.45-.62.66-2.83-2Z" transform="translate(-1.2 -1.2)"/><path class="cls-1" d="M75.45,11.52l.82.73-2.75,3.1L75.4,17l-.69.59-2.6-2.31Z" transform="translate(-1.2 -1.2)"/><path class="cls-1" d="M79.62,19.57l-.69.59L77.6,18.61l.7-.6Z" transform="translate(-1.2 -1.2)"/><path class="cls-1" d="M84,20.77,85,22.47a2.3,2.3,0,0,1-.8,3.37,2.4,2.4,0,0,1-3.51-.74l-1-1.66ZM81,23.9l.43.7c.52.82,1.35.81,2.19.28a1.38,1.38,0,0,0,.61-2l-.44-.7Z" transform="translate(-1.2 -1.2)"/><path class="cls-1" d="M86.7,31.33a2.42,2.42,0,0,1-3.4-1.21,2.35,2.35,0,0,1,1.39-3.26,2.41,2.41,0,0,1,3.39,1.21A2.36,2.36,0,0,1,86.7,31.33Zm-1.53-3.45c-.9.4-1.41,1.1-1,1.92s1.28.87,2.1.5,1.4-1.05,1-1.91S86.07,27.48,85.17,27.88Z" transform="translate(-1.2 -1.2)"/><path class="cls-1" d="M84.93,34l4.55-2.56.3,1.13c-2.12,1.06-3.06,1.54-3.58,1.74h0c1-.06,2.77-.05,4-.08l.26,1c-.87.5-2.63,1.51-3.48,1.9h0c1.12-.13,3.14-.16,3.94-.19l.28,1H86l-.3-1.09c1-.55,2.48-1.41,3.27-1.8h0c-.92.06-2.68.06-3.74.06Z" transform="translate(-1.2 -1.2)"/><path class="cls-1" d="M86.38,39.93l5-.55.15,1.35c-1.06.75-3,2.13-3.49,2.42h0c.52-.11,1.39-.21,2.21-.3l1.49-.16.11,1-5,.55L86.71,43c.92-.65,3.12-2.19,3.67-2.5h0c-.44.08-1.47.2-2.36.3l-1.53.17Z" transform="translate(-1.2 -1.2)"/><path class="cls-1" d="M88.19,50.24c-.52.06-.78.4-.84,1s.13.85.5.89.61-.18.91-1c.47-1.33,1-1.62,1.68-1.54.88.1,1.4.82,1.27,2s-.93,1.78-1.67,1.77l.12-1.09c.32,0,.67-.16.74-.8,0-.44-.1-.73-.46-.77s-.51.16-.79,1c-.51,1.42-1.08,1.68-1.79,1.6-.92-.1-1.47-.86-1.32-2.19s.84-1.87,1.77-1.89Z" transform="translate(-1.2 -1.2)"/><path class="cls-1" d="M86.73,58.51A2,2,0,0,1,85.66,56a2.29,2.29,0,0,1,3-1.7,2.38,2.38,0,0,1,2,3A1.92,1.92,0,0,1,88.62,59l.25-1.06a1,1,0,0,0,1-.86c.2-.87-.5-1.4-1.4-1.61s-1.77-.12-2,.83A1,1,0,0,0,87,57.45Z" transform="translate(-1.2 -1.2)"/><path class="cls-1" d="M86.44,60.74,84.55,60l.38-1,4.72,1.78-.78,2.07c-.39,1-1.17,1.37-1.9,1.1a1.21,1.21,0,0,1-.85-1.11c-.18.2-.56.46-1.4.14l-.23-.08a3.63,3.63,0,0,0-.93-.27l.36-1A3.37,3.37,0,0,1,85,62l.07,0c.52.2.81.16,1.1-.6Zm.81.3-.32.86c-.21.56-.08.85.32,1s.69,0,.88-.52l.33-.88Z" transform="translate(-1.2 -1.2)"/><path class="cls-1" d="M83.17,68.92A2.43,2.43,0,0,1,82,65.49a2.37,2.37,0,0,1,3.44-.9A2.41,2.41,0,0,1,86.59,68,2.36,2.36,0,0,1,83.17,68.92ZM85,65.6c-.87-.47-1.73-.44-2.15.35s.09,1.54.88,2,1.69.46,2.14-.37S85.83,66.06,85,65.6Z" transform="translate(-1.2 -1.2)"/><path class="cls-1" d="M84.49,71.45l-.63.89-3.4-2.4L79,72l-.66-.62,2-2.85Z" transform="translate(-1.2 -1.2)"/><path class="cls-1" d="M81.59,75.37l-.72.82-3.12-2.75-1.66,1.89-.59-.69L77.81,72Z" transform="translate(-1.2 -1.2)"/><path class="cls-1" d="M73.56,79.55l-.6-.69,1.55-1.33.6.69Z" transform="translate(-1.2 -1.2)"/><path class="cls-1" d="M72.34,83.91,70.64,85a2.3,2.3,0,0,1-3.37-.8A2.41,2.41,0,0,1,68,80.67l1.66-1ZM69.2,81l-.7.43c-.82.52-.8,1.36-.27,2.19a1.38,1.38,0,0,0,2,.6l.7-.43Z" transform="translate(-1.2 -1.2)"/><path class="cls-1" d="M61.82,86.66A2.42,2.42,0,0,1,63,83.25a2.36,2.36,0,0,1,3.26,1.39A2.42,2.42,0,0,1,65.07,88,2.35,2.35,0,0,1,61.82,86.66Zm3.44-1.54c-.4-.9-1.1-1.4-1.92-1s-.87,1.28-.5,2.1,1,1.4,1.91,1S65.66,86,65.26,85.12Z" transform="translate(-1.2 -1.2)"/><path class="cls-1" d="M59.12,84.9l2.57,4.54-1.13.3c-1.06-2.11-1.54-3-1.74-3.57h0c.06,1,0,2.77.08,4l-.94.25c-.51-.86-1.51-2.62-1.92-3.47h0c.13,1.12.16,3.14.2,3.94l-1,.28V86l1.09-.3c.55,1,1.41,2.47,1.8,3.26h0C58,88,58,86.25,58,85.2Z" transform="translate(-1.2 -1.2)"/><path class="cls-1" d="M53.18,86.36l.56,5-1.34.15c-.76-1.06-2.14-3-2.43-3.48h0c.11.52.21,1.39.3,2.21l.16,1.49-1,.11-.56-5,1.28-.14c.64.92,2.19,3.11,2.5,3.66h0c-.08-.43-.21-1.46-.31-2.36l-.17-1.53Z" transform="translate(-1.2 -1.2)"/><path class="cls-1" d="M42.91,88.19c-.06-.52-.4-.78-1-.84s-.85.14-.89.5.17.62,1,.91c1.33.47,1.62,1,1.54,1.68-.09.87-.81,1.4-2,1.27s-1.79-.92-1.78-1.66l1.1.12c0,.31.15.66.8.73.44,0,.72-.1.76-.46s-.16-.51-.95-.79c-1.42-.5-1.68-1.08-1.61-1.79.1-.91.87-1.46,2.19-1.32s1.88.84,1.9,1.77Z" transform="translate(-1.2 -1.2)"/><path class="cls-1" d="M34.6,86.75a2,2,0,0,1,2.49-1.08,2.28,2.28,0,0,1,1.7,3,2.38,2.38,0,0,1-2.95,2,1.92,1.92,0,0,1-1.68-2.08l1.06.25a1,1,0,0,0,.85,1c.88.21,1.4-.5,1.62-1.39s.11-1.78-.84-2a1,1,0,0,0-1.18.51Z" transform="translate(-1.2 -1.2)"/><path class="cls-1" d="M32.4,86.47l.71-1.9,1,.38-1.77,4.73-2.08-.78c-1-.38-1.37-1.16-1.1-1.89a1.21,1.21,0,0,1,1.1-.86c-.2-.18-.46-.55-.14-1.4l.08-.23a4.23,4.23,0,0,0,.27-.93l1,.36a3.37,3.37,0,0,1-.3,1.1l0,.07c-.19.52-.16.81.61,1.1Zm-.3.81L31.24,87c-.56-.21-.86-.08-1,.32s0,.69.53.88l.89.33Z" transform="translate(-1.2 -1.2)"/><path class="cls-1" d="M24.21,83.22a2.42,2.42,0,0,1,3.43-1.14,2.36,2.36,0,0,1,.91,3.43,2.42,2.42,0,0,1-3.42,1.13A2.35,2.35,0,0,1,24.21,83.22ZM27.54,85c.46-.87.43-1.73-.36-2.16s-1.54.1-2,.9-.45,1.69.38,2.13S27.08,85.87,27.54,85Z" transform="translate(-1.2 -1.2)"/><path class="cls-1" d="M21.65,84.51l-.89-.63,2.4-3.39L21.1,79l.62-.66,2.85,2Z" transform="translate(-1.2 -1.2)"/><path class="cls-1" d="M17.73,81.64l-.82-.72,2.74-3.13-1.89-1.66.69-.59,2.62,2.3Z" transform="translate(-1.2 -1.2)"/><path class="cls-1" d="M13.55,73.63l.7-.6,1.33,1.54-.69.6Z" transform="translate(-1.2 -1.2)"/><path class="cls-1" d="M9.19,72.41l-1.06-1.7a2.29,2.29,0,0,1,.79-3.37,2.41,2.41,0,0,1,3.51.72l1,1.66Zm3-3.14-.43-.7c-.52-.82-1.35-.8-2.19-.28a1.39,1.39,0,0,0-.6,2l.44.7Z" transform="translate(-1.2 -1.2)"/><path class="cls-1" d="M6.42,61.9a2.42,2.42,0,0,1,3.41,1.19,2.36,2.36,0,0,1-1.38,3.27,2.4,2.4,0,0,1-3.39-1.19A2.35,2.35,0,0,1,6.42,61.9ZM8,65.34c.9-.4,1.4-1.1,1-1.92s-1.29-.87-2.11-.49S5.5,64,5.89,64.85,7.07,65.75,8,65.34Z" transform="translate(-1.2 -1.2)"/><path class="cls-1" d="M8.17,59.2,3.64,61.78l-.3-1.13c2.11-1.07,3-1.55,3.56-1.75h0C6,59,4.13,59,2.88,59l-.26-1c.86-.51,2.62-1.52,3.47-1.92h0c-1.11.13-3.13.17-3.93.21l-.28-1,5.23,0,.3,1.09c-1,.55-2.47,1.41-3.25,1.81h0c.91-.06,2.67-.07,3.73-.08Z" transform="translate(-1.2 -1.2)"/><path class="cls-1" d="M6.7,53.27l-5,.57-.15-1.35c1.06-.75,3-2.14,3.48-2.43H5c-.52.11-1.39.21-2.22.3l-1.48.17-.11-1,5-.57.15,1.28c-.92.64-3.11,2.19-3.66,2.51h0c.43-.09,1.46-.21,2.36-.32l1.53-.17Z" transform="translate(-1.2 -1.2)"/><path class="cls-1" d="M4.86,43c.51-.06.77-.39.84-1s-.14-.86-.51-.9-.61.18-.9,1c-.47,1.33-1,1.61-1.69,1.54-.87-.1-1.39-.82-1.26-2,.14-1.34.92-1.79,1.66-1.78L2.88,41c-.32,0-.67.16-.74.8-.05.44.11.73.46.77s.52-.16.79-1c.5-1.42,1.08-1.69,1.79-1.61.92.1,1.47.86,1.32,2.19S5.67,44,4.74,44.06Z" transform="translate(-1.2 -1.2)"/><path class="cls-1" d="M6.27,34.69a2,2,0,0,1,1.09,2.49,2.28,2.28,0,0,1-3,1.7,2.37,2.37,0,0,1-2-2.94,1.93,1.93,0,0,1,2.07-1.69l-.25,1.06a1,1,0,0,0-1,.86c-.2.87.51,1.4,1.4,1.61s1.77.11,2-.84A1,1,0,0,0,6,35.75Z" transform="translate(-1.2 -1.2)"/><path class="cls-1" d="M6.55,32.49l1.89.7-.37,1L3.34,32.43l.77-2.08c.38-1,1.16-1.37,1.89-1.1a1.21,1.21,0,0,1,.87,1.1c.17-.2.54-.46,1.39-.15l.24.09a3.94,3.94,0,0,0,.92.26l-.36,1A3.4,3.4,0,0,1,8,31.23l-.07,0c-.51-.19-.81-.15-1.09.61Zm-.81-.31.31-.85c.21-.56.08-.86-.32-1s-.69,0-.88.53l-.32.89Z" transform="translate(-1.2 -1.2)"/><path class="cls-1" d="M9.78,24.29a2.42,2.42,0,0,1,1.15,3.42,2.37,2.37,0,0,1-3.43.92,2.41,2.41,0,0,1-1.13-3.42A2.35,2.35,0,0,1,9.78,24.29ZM8,27.62c.87.46,1.73.43,2.15-.36s-.1-1.54-.9-2-1.69-.45-2.13.38S7.14,27.16,8,27.62Z" transform="translate(-1.2 -1.2)"/><path class="cls-1" d="M8.48,21.73l.62-.89,3.41,2.39L14,21.17l.66.62-2,2.85Z" transform="translate(-1.2 -1.2)"/><path class="cls-1" d="M11.36,17.81l.71-.83,3.13,2.74,1.65-1.89.6.68-2.3,2.62Z" transform="translate(-1.2 -1.2)"/><path class="cls-1" d="M19.35,13.6l.6.69L18.4,15.63l-.59-.69Z" transform="translate(-1.2 -1.2)"/><path class="cls-1" d="M20.56,9.24l1.69-1.06A2.3,2.3,0,0,1,25.62,9a2.4,2.4,0,0,1-.72,3.51l-1.65,1Zm3.14,2.95.7-.44c.81-.52.79-1.35.27-2.19a1.39,1.39,0,0,0-2-.59l-.7.44Z" transform="translate(-1.2 -1.2)"/><path class="cls-1" d="M31.08,6.44A2.42,2.42,0,0,1,29.9,9.85a2.36,2.36,0,0,1-3.27-1.37,2.4,2.4,0,0,1,1.19-3.39A2.35,2.35,0,0,1,31.08,6.44ZM27.65,8c.4.9,1.1,1.4,1.92,1s.86-1.28.49-2.1-1.06-1.39-1.92-1S27.24,7.1,27.65,8Z" transform="translate(-1.2 -1.2)"/><path class="cls-1" d="M33.76,8.2,31.17,3.67l1.13-.31c1.07,2.11,1.55,3.05,1.76,3.57h0C34,6,34,4.15,34,2.9l.95-.26c.51.86,1.52,2.61,1.93,3.46h0C36.71,5,36.67,3,36.63,2.16l1-.28,0,5.23-1.09.3C36,6.41,35.17,5,34.77,4.16h0c.07.91.08,2.67.09,3.73Z" transform="translate(-1.2 -1.2)"/><path class="cls-1" d="M39.68,6.71l-.57-5,1.34-.15c.76,1,2.15,3,2.44,3.47h0c-.12-.52-.22-1.39-.31-2.21l-.18-1.49,1-.11.58,5-1.28.15c-.65-.92-2.2-3.1-2.52-3.65h0c.08.43.21,1.46.32,2.36l.17,1.53Z" transform="translate(-1.2 -1.2)"/><circle class="cls-1" cx="36.83" cy="36.92" r="9.4"/><circle class="cls-1" cx="54.93" cy="36.92" r="9.4"/><circle class="cls-1" cx="36.83" cy="55.39" r="9.4"/><circle class="cls-1" cx="55.55" cy="55.39" r="9.4"/><circle class="cls-1" cx="45.92" cy="46.02" r="12.67"/><circle class="cls-2" cx="58.59" cy="33.25" r="13.07"/><circle class="cls-2" cx="33.46" cy="33.25" r="13.07"/><circle class="cls-2" cx="58.59" cy="59.39" r="13.07"/><circle class="cls-2" cx="33.46" cy="59.39" r="13.07"/><circle class="cls-1" cx="33.4" cy="20.16" r="1.39"/><circle class="cls-1" cx="68.85" cy="40.77" r="1.39"/><circle class="cls-1" cx="57.2" cy="72.45" r="1.39"/><circle class="cls-1" cx="20.4" cy="58.69" r="1.39"/></g></g></svg>