<svg width="2082" height="597" viewBox="0 0 2082 597" fill="none" xmlns="http://www.w3.org/2000/svg">
<path d="M739.445 436V108.727H956.135V165.776H808.638V243.759H941.753V300.808H808.638V436H739.445ZM1001.4 436V190.545H1069.47V436H1001.4ZM1035.6 158.905C1025.48 158.905 1016.79 155.549 1009.55 148.837C1002.41 142.019 998.842 133.869 998.842 124.388C998.842 115.013 1002.41 106.969 1009.55 100.258C1016.79 93.4396 1025.48 90.0305 1035.6 90.0305C1045.72 90.0305 1054.35 93.4396 1061.48 100.258C1068.73 106.969 1072.35 115.013 1072.35 124.388C1072.35 133.869 1068.73 142.019 1061.48 148.837C1054.35 155.549 1045.72 158.905 1035.6 158.905ZM1234.59 533.159C1212.54 533.159 1193.63 530.123 1177.86 524.05C1162.2 518.085 1149.73 509.935 1140.47 499.601C1131.2 489.267 1125.18 477.655 1122.41 464.764L1185.37 456.295C1187.29 461.195 1190.32 465.776 1194.48 470.038C1198.63 474.299 1204.12 477.708 1210.94 480.265C1217.86 482.928 1226.28 484.26 1236.19 484.26C1250.99 484.26 1263.19 480.638 1272.78 473.393C1282.48 466.256 1287.32 454.271 1287.32 437.438V392.534H1284.45C1281.46 399.352 1276.99 405.798 1271.02 411.87C1265.06 417.942 1257.39 422.896 1248.01 426.732C1238.64 430.567 1227.45 432.484 1214.45 432.484C1196.02 432.484 1179.24 428.223 1164.12 419.7C1149.09 411.071 1137.11 397.914 1128.16 380.229C1119.32 362.438 1114.9 339.96 1114.9 312.793C1114.9 284.988 1119.43 261.763 1128.48 243.12C1137.54 224.477 1149.57 210.521 1164.6 201.252C1179.72 191.984 1196.29 187.349 1214.29 187.349C1228.04 187.349 1239.54 189.693 1248.81 194.381C1258.08 198.962 1265.54 204.714 1271.18 211.639C1276.94 218.457 1281.36 225.169 1284.45 231.774H1287V190.545H1354.6V438.397C1354.6 459.278 1349.49 476.749 1339.26 490.812C1329.03 504.874 1314.86 515.421 1296.75 522.452C1278.75 529.59 1258.03 533.159 1234.59 533.159ZM1236.03 381.348C1247 381.348 1256.27 378.631 1263.83 373.198C1271.5 367.658 1277.36 359.775 1281.41 349.548C1285.56 339.214 1287.64 326.856 1287.64 312.474C1287.64 298.092 1285.62 285.627 1281.57 275.08C1277.52 264.427 1271.66 256.17 1263.99 250.311C1256.32 244.452 1247 241.522 1236.03 241.522C1224.84 241.522 1215.41 244.558 1207.74 250.631C1200.07 256.597 1194.27 264.906 1190.32 275.56C1186.38 286.213 1184.41 298.518 1184.41 312.474C1184.41 326.643 1186.38 338.894 1190.32 349.228C1194.37 359.455 1200.18 367.392 1207.74 373.038C1215.41 378.578 1224.84 381.348 1236.03 381.348ZM1408.77 436V190.545H1473.65V233.852H1476.53C1481.64 219.469 1490.16 208.124 1502.1 199.814C1514.03 191.504 1528.3 187.349 1544.92 187.349C1561.75 187.349 1576.08 191.558 1587.91 199.974C1599.73 208.283 1607.62 219.576 1611.56 233.852H1614.12C1619.12 219.789 1628.18 208.55 1641.28 200.134C1654.49 191.611 1670.1 187.349 1688.1 187.349C1711.01 187.349 1729.6 194.647 1743.87 209.242C1758.26 223.731 1765.45 244.292 1765.45 270.925V436H1697.53V284.349C1697.53 270.712 1693.91 260.485 1686.67 253.667C1679.42 246.849 1670.37 243.44 1659.5 243.44C1647.14 243.44 1637.5 247.381 1630.58 255.265C1623.65 263.042 1620.19 273.322 1620.19 286.107V436H1554.19V282.911C1554.19 270.872 1550.73 261.284 1543.8 254.146C1536.99 247.009 1527.98 243.44 1516.8 243.44C1509.23 243.44 1502.42 245.357 1496.34 249.192C1490.38 252.921 1485.64 258.195 1482.12 265.013C1478.6 271.724 1476.85 279.608 1476.85 288.663V436H1408.77ZM1889.21 440.634C1873.55 440.634 1859.6 437.918 1847.35 432.484C1835.09 426.945 1825.4 418.795 1818.26 408.035C1811.23 397.168 1807.72 383.638 1807.72 367.445C1807.72 353.809 1810.22 342.357 1815.23 333.088C1820.23 323.82 1827.05 316.362 1835.68 310.716C1844.31 305.07 1854.11 300.808 1865.08 297.932C1876.16 295.055 1887.78 293.031 1899.92 291.859C1914.2 290.368 1925.7 288.983 1934.44 287.705C1943.17 286.32 1949.51 284.295 1953.45 281.632C1957.4 278.969 1959.37 275.027 1959.37 269.807V268.848C1959.37 258.727 1956.17 250.897 1949.78 245.357C1943.49 239.817 1934.54 237.048 1922.93 237.048C1910.68 237.048 1900.93 239.764 1893.69 245.197C1886.44 250.524 1881.65 257.236 1879.31 265.332L1816.34 260.219C1819.54 245.304 1825.83 232.413 1835.2 221.547C1844.58 210.574 1856.67 202.158 1871.48 196.298C1886.39 190.332 1903.65 187.349 1923.25 187.349C1936.89 187.349 1949.94 188.947 1962.4 192.143C1974.97 195.339 1986.11 200.293 1995.8 207.005C2005.6 213.717 2013.33 222.346 2018.97 232.893C2024.62 243.333 2027.44 255.851 2027.44 270.446V436H1962.88V401.962H1960.96C1957.02 409.633 1951.75 416.398 1945.14 422.257C1938.54 428.01 1930.6 432.538 1921.33 435.84C1912.07 439.036 1901.36 440.634 1889.21 440.634ZM1908.71 393.653C1918.72 393.653 1927.57 391.682 1935.24 387.74C1942.91 383.692 1948.93 378.259 1953.29 371.44C1957.66 364.622 1959.85 356.898 1959.85 348.269V322.222C1957.72 323.607 1954.79 324.885 1951.06 326.057C1947.43 327.122 1943.33 328.134 1938.75 329.093C1934.17 329.945 1929.59 330.744 1925.01 331.49C1920.43 332.129 1916.27 332.715 1912.54 333.248C1904.55 334.42 1897.58 336.284 1891.61 338.841C1885.64 341.398 1881.01 344.86 1877.71 349.228C1874.41 353.489 1872.75 358.816 1872.75 365.208C1872.75 374.477 1876.11 381.561 1882.82 386.462C1889.64 391.256 1898.27 393.653 1908.71 393.653Z" fill="#DCDCDC"/>
<rect width="597" height="597" rx="140" fill="#222222"/>
<path d="M171.57 172.333C171.57 136.803 200.373 108 235.904 108H302V236.667H235.904C200.373 236.667 171.57 207.864 171.57 172.333V172.333Z" fill="#EA4B1C"/>
<path d="M171.57 300.999C171.57 265.469 200.373 236.666 235.904 236.666H302V365.333H235.904C200.373 365.333 171.57 336.53 171.57 300.999V300.999Z" fill="#9D56F7"/>
<path d="M302 300.999C302 265.469 330.803 236.666 366.333 236.666H368.096C403.626 236.666 432.429 265.469 432.429 300.999V300.999C432.429 336.53 403.626 365.333 368.096 365.333H366.333C330.803 365.333 302 336.53 302 300.999V300.999Z" fill="#18B6F5"/>
<path d="M171.57 429.667C171.57 394.137 200.373 365.334 235.904 365.334H302V428.786C302 464.803 272.358 494.001 236.341 494.001V494.001C200.811 494.001 171.57 465.198 171.57 429.667V429.667Z" fill="#09C980"/>
<path d="M302 108H365.452C400.982 108 429.785 136.803 429.785 172.333V172.333C429.785 207.864 400.982 236.667 365.452 236.667H302V108Z" fill="#F76D60"/>
</svg>
